<svg width="324" height="360" viewBox="0 0 324 360" fill="none" xmlns="http://www.w3.org/2000/svg">
<path fill-rule="evenodd" clip-rule="evenodd" d="M178.171 24.7171L178.333 24.7857C187.922 28.8343 197.83 33.0173 207.856 36.1177C221.718 40.4019 236.488 42.5797 251.474 42.6511C251.396 42.5727 251.317 42.4939 251.238 42.4149C250.921 42.0979 250.601 41.7778 250.266 41.4729C247.755 39.069 245.028 36.9151 242.145 35.0348C241.201 34.416 240.22 33.809 239.131 33.1902L238.366 32.7499L232.673 29.5011L205.105 13.7687L198.371 9.92487L192.607 6.62845C185.012 2.28479 176.353 -9.15527e-05 167.574 -9.15527e-05C158.795 -9.15527e-05 150.148 2.29669 142.541 6.62845L136.466 10.1034C150.967 13.2359 164.731 19.0424 178.066 24.6678L178.183 24.7171H178.171ZM93.2897 34.8323C91.2684 36.1413 89.3189 37.5694 87.501 39.0927C81.2338 44.3407 76.1747 50.8503 72.6226 58.2881C71.0677 61.5369 69.8239 64.9285 68.9269 68.4034C68.897 68.5284 68.8671 68.6504 68.8372 68.7723C68.8073 68.8943 68.7774 69.0163 68.7475 69.1413C92.2252 76.1149 112.163 87.7773 131.203 99.8801C133.88 98.5368 136.556 97.1821 139.255 95.816L139.257 95.8153L139.261 95.8131L139.408 95.7387C168.794 80.8513 199.185 65.464 239 62.0724C247.611 61.3346 256.139 61.6559 264.535 62.9887C262.597 57.7525 259.882 52.802 256.45 48.3036C255.062 48.3393 253.663 48.3631 252.276 48.3631C236.44 48.3631 220.821 46.102 206.157 41.5679C195.823 38.3703 185.728 34.1039 175.966 29.9787L175.966 29.9786L175.934 29.965C162.539 24.3004 148.689 18.4573 134.373 15.4822C132.531 15.1014 130.677 14.7682 128.799 14.4826L96.0046 33.2019C95.0837 33.7256 94.1986 34.273 93.3136 34.8323H93.2897ZM67.6592 74.7706C67.42 76.4842 67.2526 78.2098 67.1808 79.9473C67.1808 79.983 67.1778 80.0216 67.1748 80.0603C67.1718 80.099 67.1688 80.1377 67.1688 80.1734C67.121 80.9945 67.109 81.8275 67.109 82.6487V124.217C88.1349 120.064 106.649 112.007 125.199 102.879C107.104 91.4669 88.9722 81.1492 67.6712 74.7706H67.6592ZM142.015 100.844C170.911 86.2068 200.787 71.0813 239.466 67.7849H239.454C248.556 67.0114 257.55 67.4636 266.377 69.1297C266.724 70.522 267.011 71.9144 267.25 73.3305C267.692 75.9248 267.943 78.5548 268.003 81.2205C268.027 81.6846 268.027 82.1725 268.027 82.6486V129.12C268.027 136.462 266.58 143.614 263.901 150.243C254.058 151.326 244.167 150.945 234.312 149.065C196.195 141.806 168.076 123.669 140.891 106.128L140.886 106.125C139.524 105.245 138.162 104.366 136.789 103.486L136.795 103.483C138.539 102.603 140.283 101.724 142.015 100.844ZM129.003 169.997C139.217 174.317 149.789 178.78 160.47 182.088C179.833 188.074 200.847 190.181 221.885 188.419L223.703 187.384L230.006 183.79L239.167 178.566C248.556 173.211 256.067 165.404 261.066 156.252C258.411 156.455 255.756 156.562 253.101 156.562C246.475 156.562 239.849 155.931 233.223 154.67C194.032 147.203 165.453 128.774 137.814 110.952L137.734 110.9C137.17 110.537 136.608 110.174 136.046 109.811L136.04 109.808C134.301 108.685 132.567 107.566 130.833 106.461C111.11 116.279 90.5389 125.526 67.109 130.024C67.121 131.047 67.1569 132.059 67.2286 133.023C67.408 135.784 67.8147 138.556 68.4127 141.258C68.4605 141.496 68.5189 141.734 68.5774 141.971L68.5775 141.972C68.5921 142.031 68.6067 142.091 68.6211 142.15C68.6356 142.21 68.6499 142.269 68.6639 142.329C69.0585 143.983 69.525 145.625 70.0751 147.244C70.6373 148.922 71.2951 150.576 72.0247 152.206C72.0486 152.254 72.0725 152.304 72.0964 152.355C72.1203 152.406 72.1442 152.456 72.1682 152.504C76.1031 152.92 80.0021 153.515 83.8413 154.313C99.5594 157.578 114.48 163.878 128.911 169.971L129.003 170.009V169.997ZM158.748 187.539C174.272 192.347 190.801 194.739 207.569 194.739V194.727C208.681 194.727 209.781 194.715 210.894 194.691L192.607 205.128C185 209.46 176.353 211.757 167.574 211.757C158.795 211.757 150.148 209.472 142.542 205.128L106.171 184.374L95.9688 178.554C88.2785 174.151 81.832 168.201 76.9761 161.061C76.4379 160.275 75.9237 159.454 75.4213 158.633C77.8492 158.978 80.2652 159.383 82.6572 159.883C97.814 163.029 112.471 169.222 126.639 175.207L126.73 175.246C137.088 179.625 147.792 184.148 158.748 187.539ZM140.193 267.342V358.251H155.746V267.342H140.193ZM44.057 337.759L44.0589 337.76C41.0274 342.081 36.6351 343.917 31.4996 343.917C21.7227 343.917 15.1211 337.161 15.1211 327.263C15.1211 317.366 21.7227 310.485 31.4996 310.485C36.8544 310.485 41.393 312.555 44.1467 317.366L57.1885 309.789C51.6184 301.444 42.0927 296.401 31.4996 296.401C14.2959 296.401 0.0432129 308.985 0.0432129 327.272C0.0432129 345.559 14.2959 358.018 31.4996 358.018C41.8415 358.018 51.152 353.395 56.6413 345.64L44.0589 337.76L44.066 337.75L44.057 337.759ZM125.6 356.68H110.046V352.137C105.095 356.099 98.619 358.429 90.6092 358.429C75.6479 358.429 61.745 345.97 61.745 327.683C61.745 309.396 75.6479 296.821 90.6092 296.821C98.619 296.821 105.104 299.15 110.046 303.229V298.57H125.6V356.68ZM110.046 327.683C110.046 316.964 101.687 310.217 93.318 310.217C83.891 310.217 76.8229 316.973 76.8229 327.683C76.8229 338.393 83.891 345.033 93.318 345.033C101.687 345.033 110.046 338.393 110.046 327.683ZM187.849 282.783C187.849 287.905 183.839 291.752 178.422 291.752C173.004 291.752 168.995 287.905 168.995 282.783C168.995 277.66 172.878 273.581 178.422 273.581C183.965 273.581 187.849 277.892 187.849 282.783ZM170.645 358.251V300.132H186.198V358.251H170.645ZM200.28 358.251H252.474V345.676H219.484L251.057 310.387V300.141H201.106V312.716H231.853L200.28 348.237V358.251ZM323.854 358.251H308.301V353.708C303.35 357.67 296.874 360 288.864 360C273.903 360 260 347.541 260 329.254C260 310.967 273.903 298.392 288.864 298.392C296.874 298.392 303.359 300.721 308.301 304.8V300.141H323.854V358.251ZM308.301 329.254C308.301 318.535 299.942 311.788 291.573 311.788C282.146 311.788 275.078 318.544 275.078 329.254C275.078 339.964 282.146 346.604 291.573 346.604C299.942 346.604 308.301 339.964 308.301 329.254Z" fill="white"/>
</svg>
