<svg width="647" height="200" viewBox="0 0 647 200" fill="none" xmlns="http://www.w3.org/2000/svg">
<path fill-rule="evenodd" clip-rule="evenodd" d="M104.896 23.3456L105.049 23.4103C114.106 27.2342 123.464 31.1849 132.933 34.1132C146.025 38.1595 159.976 40.2164 174.13 40.2838C174.056 40.2105 173.982 40.1367 173.908 40.0628L173.906 40.0608C173.607 39.7614 173.305 39.459 172.989 39.1711C170.617 36.9007 168.041 34.8663 165.319 33.0904C164.426 32.5059 163.5 31.9327 162.472 31.3482L161.749 30.9324L156.372 27.8639L130.335 13.005L123.975 9.37456L118.53 6.26115C111.357 2.15864 103.179 0.000610352 94.8874 0.000610352C86.5961 0.000610352 78.429 2.16988 71.2446 6.26115L65.5062 9.54315C79.2023 12.5018 92.202 17.9859 104.797 23.299L104.907 23.3456H104.896ZM24.7272 32.8997C22.8181 34.1361 20.9769 35.4849 19.2598 36.9235C13.3407 41.8803 8.56242 48.0284 5.20747 55.0532C3.73898 58.1217 2.56418 61.325 1.71697 64.607C1.68876 64.7249 1.66054 64.84 1.63233 64.9551L1.63231 64.9552L1.6323 64.9553L1.63228 64.9553L1.63227 64.9554L1.63225 64.9555C1.60401 65.0707 1.57577 65.1859 1.54753 65.3039C23.7218 71.8904 42.5524 82.9053 60.5359 94.3362C63.0672 93.0658 65.5984 91.7845 68.1512 90.4925L68.285 90.4247C96.0396 76.3638 124.743 61.8308 162.348 58.6275C170.481 57.9306 178.535 58.2341 186.465 59.493C184.635 54.5475 182.071 49.8717 178.829 45.6231C177.518 45.6568 176.197 45.6793 174.886 45.6793C159.93 45.6793 145.178 43.5438 131.329 39.2614C121.568 36.2412 112.033 32.2116 102.813 28.3154L102.783 28.3027C90.1317 22.9525 77.0508 17.4338 63.5293 14.6239C61.7897 14.2642 60.0388 13.9495 58.2653 13.6798L27.2914 31.3599C26.4216 31.8544 25.5857 32.3715 24.7498 32.8997H24.7272ZM0.519622 70.6198C0.293699 72.2383 0.135553 73.8681 0.0677767 75.5091C0.0677767 75.5428 0.0649527 75.5793 0.0621287 75.6159C0.0593046 75.6524 0.0564806 75.6889 0.0564806 75.7226C0.0112961 76.4982 0 77.285 0 78.0605V117.321C19.8586 113.398 37.345 105.789 54.8653 97.1681C37.7742 86.3892 20.6493 76.6443 0.530918 70.6198H0.519622ZM70.7476 95.2462C98.039 81.4213 126.257 67.1356 162.788 64.0222H162.777C171.373 63.2916 179.868 63.7187 188.205 65.2923C188.532 66.6073 188.803 67.9224 189.029 69.2599C189.447 71.7102 189.684 74.1942 189.741 76.7119C189.763 77.1502 189.763 77.611 189.763 78.0606V121.952C189.763 128.887 188.397 135.642 185.866 141.902C176.57 142.925 167.228 142.566 157.92 140.79C121.919 133.933 95.3618 116.804 69.6858 100.237C68.398 99.4049 67.1102 98.5732 65.8112 97.7414C67.4604 96.9097 69.1096 96.0779 70.7476 95.2462ZM58.4574 160.56C68.1043 164.641 78.0901 168.855 88.1775 171.98C106.466 177.634 126.313 179.623 146.183 177.96L147.9 176.982L153.853 173.587L162.506 168.653C171.373 163.595 178.467 156.222 183.189 147.579C180.681 147.77 178.174 147.871 175.666 147.871C169.408 147.871 163.15 147.275 156.892 146.084C119.876 139.032 92.8838 121.626 66.7794 104.793L66.7036 104.744C66.1696 104.4 65.6363 104.056 65.1035 103.712C63.461 102.652 61.8234 101.595 60.1857 100.551C41.5584 109.824 22.1291 118.558 0 122.806C0.0112961 123.773 0.0451845 124.728 0.112961 125.639C0.282403 128.246 0.666471 130.865 1.23128 133.416C1.27646 133.641 1.33169 133.866 1.38692 134.091L1.38716 134.092C1.41469 134.204 1.44222 134.316 1.4685 134.428C1.84127 135.99 2.28182 137.541 2.80144 139.07C3.33236 140.655 3.95364 142.217 4.64271 143.757C4.66528 143.802 4.68786 143.85 4.71044 143.897C4.73304 143.945 4.75565 143.993 4.77826 144.038C8.49468 144.431 12.1772 144.993 15.8033 145.746C30.6488 148.831 44.7407 154.78 58.3708 160.535L58.4574 160.572V160.56ZM86.5508 177.128C101.213 181.669 116.824 183.928 132.662 183.928V183.917C133.712 183.917 134.751 183.906 135.802 183.883L118.53 193.74C111.346 197.832 103.179 200.001 94.8874 200.001C86.596 200.001 78.4289 197.843 71.2446 193.74L36.8931 174.138L27.2575 168.642C19.9941 164.483 13.9055 158.863 9.31928 152.12C8.81095 151.378 8.32522 150.602 7.85078 149.827C10.1439 150.153 12.4257 150.535 14.6849 151.007C29.0003 153.979 42.8433 159.827 56.2252 165.481L56.3111 165.517C66.0936 169.654 76.2036 173.925 86.5508 177.128ZM414.744 34.6745V149.162H434.331V34.6745H414.744ZM293.672 123.356L293.674 123.357C289.857 128.799 284.325 131.111 277.857 131.111C265.545 131.111 257.231 122.603 257.231 110.138C257.231 97.6729 265.545 89.0071 277.857 89.0071C284.601 89.0071 290.317 91.6147 293.785 97.6729L310.21 88.1304C303.195 77.6212 291.198 71.2708 277.857 71.2708C256.192 71.2708 238.242 87.1188 238.242 110.149C238.242 133.179 256.192 148.87 277.857 148.87C290.882 148.87 302.607 143.048 309.521 133.28L293.674 123.357L293.683 123.344L293.672 123.356ZM396.365 147.184H376.778V141.463C370.542 146.453 362.386 149.387 352.299 149.387C333.457 149.387 315.948 133.696 315.948 110.666C315.948 87.6357 333.457 71.799 352.299 71.799C362.386 71.799 370.553 74.7325 376.778 79.8691V74.0019H396.365V147.184ZM376.778 110.666C376.778 97.1671 366.25 88.6698 355.71 88.6698C343.838 88.6698 334.937 97.1783 334.937 110.666C334.937 124.154 343.838 132.516 355.71 132.516C366.25 132.516 376.778 124.154 376.778 110.666ZM474.76 54.1195C474.76 60.5711 469.711 65.4155 462.888 65.4155C456.065 65.4155 451.016 60.5711 451.016 54.1195C451.016 47.6679 455.907 42.5314 462.888 42.5314C469.869 42.5314 474.76 47.9602 474.76 54.1195ZM453.094 149.163V75.9696H472.682V149.163H453.094ZM490.417 149.162H556.149V133.326H514.602L554.364 88.8837V75.9805H491.456V91.8173H530.179L490.417 136.551V149.162ZM646.043 149.162H626.456V143.441C620.22 148.432 612.064 151.365 601.977 151.365C583.135 151.365 565.626 135.675 565.626 112.644C565.626 89.6142 583.135 73.7774 601.977 73.7774C612.064 73.7774 620.232 76.711 626.456 81.8475V75.9804H646.043V149.162ZM626.456 112.644C626.456 99.1455 615.928 90.6483 605.388 90.6483C593.516 90.6483 584.615 99.1568 584.615 112.644C584.615 126.132 593.516 134.494 605.388 134.494C615.928 134.494 626.456 126.132 626.456 112.644Z" fill="#010A18"/>
</svg>
