<svg width="647" height="200" viewBox="0 0 647 200" fill="none" xmlns="http://www.w3.org/2000/svg">
<path fill-rule="evenodd" clip-rule="evenodd" d="M104.896 23.3452L105.049 23.41C114.106 27.2339 123.464 31.1846 132.933 34.1129C146.025 38.1592 159.976 40.2161 174.13 40.2835C174.056 40.2102 173.982 40.1364 173.908 40.0625L173.906 40.0605C173.607 39.7611 173.305 39.4587 172.989 39.1708C170.617 36.9004 168.041 34.866 165.319 33.0901C164.426 32.5056 163.5 31.9324 162.472 31.3479L161.749 30.9321L156.372 27.8636L130.335 13.0047L123.975 9.37425L118.53 6.26084C111.357 2.15834 103.179 0.000305176 94.8874 0.000305176C86.5961 0.000305176 78.429 2.16958 71.2446 6.26084L65.5062 9.54285C79.2023 12.5015 92.202 17.9855 104.797 23.2987L104.907 23.3452H104.896ZM24.7272 32.8994C22.8181 34.1358 20.9769 35.4846 19.2598 36.9232C13.3407 41.88 8.56242 48.0281 5.20747 55.0529C3.73898 58.1214 2.56418 61.3247 1.71697 64.6067C1.68876 64.7246 1.66054 64.8397 1.63233 64.9548L1.63231 64.9549L1.6323 64.9549L1.63228 64.955L1.63227 64.9551L1.63225 64.9552C1.60401 65.0704 1.57577 65.1856 1.54753 65.3036C23.7218 71.8901 42.5524 82.905 60.5359 94.3358C63.0672 93.0655 65.5984 91.7842 68.1512 90.4922L68.285 90.4244C96.0396 76.3635 124.743 61.8305 162.348 58.6272C170.481 57.9303 178.535 58.2338 186.465 59.4926C184.635 54.5472 182.071 49.8714 178.829 45.6228C177.518 45.6565 176.197 45.679 174.886 45.679C159.93 45.679 145.178 43.5435 131.329 39.2611C121.568 36.2409 112.033 32.2113 102.813 28.3151L102.783 28.3024C90.1317 22.9522 77.0508 17.4335 63.5293 14.6236C61.7897 14.2639 60.0388 13.9492 58.2653 13.6795L27.2914 31.3596C26.4216 31.8541 25.5857 32.3711 24.7498 32.8994H24.7272ZM0.519622 70.6195C0.293699 72.238 0.135553 73.8678 0.0677767 75.5088C0.0677767 75.5425 0.0649527 75.579 0.0621287 75.6156C0.0593046 75.6521 0.0564806 75.6886 0.0564806 75.7223C0.0112961 76.4979 0 77.2847 0 78.0602V117.321C19.8586 113.398 37.345 105.789 54.8653 97.1678C37.7742 86.3888 20.6493 76.644 0.530918 70.6195H0.519622ZM70.7476 95.2459C98.039 81.421 126.257 67.1353 162.788 64.0219H162.777C171.373 63.2913 179.868 63.7184 188.205 65.292C188.532 66.607 188.803 67.9221 189.029 69.2596C189.447 71.7099 189.684 74.1939 189.741 76.7116C189.763 77.1499 189.763 77.6107 189.763 78.0603V121.952C189.763 128.886 188.397 135.642 185.866 141.902C176.57 142.925 167.228 142.565 157.92 140.789C121.919 133.933 95.3618 116.804 69.6858 100.236C68.398 99.4046 67.1102 98.5729 65.8112 97.7411C67.4604 96.9094 69.1096 96.0776 70.7476 95.2459ZM58.4574 160.56C68.1043 164.64 78.0901 168.855 88.1775 171.98C106.466 177.633 126.313 179.623 146.183 177.959L147.9 176.981L153.853 173.587L162.506 168.653C171.373 163.595 178.467 156.222 183.189 147.578C180.681 147.769 178.174 147.87 175.666 147.87C169.408 147.87 163.15 147.275 156.892 146.083C119.876 139.032 92.8838 121.626 66.7794 104.792L66.7036 104.744C66.1696 104.399 65.6363 104.055 65.1035 103.712C63.461 102.652 61.8234 101.595 60.1857 100.551C41.5584 109.824 22.1291 118.557 0 122.806C0.0112961 123.772 0.0451845 124.728 0.112961 125.638C0.282403 128.246 0.666471 130.865 1.23128 133.416C1.27646 133.641 1.33169 133.866 1.38692 134.091L1.38716 134.092C1.41469 134.204 1.44222 134.316 1.4685 134.428C1.84127 135.99 2.28182 137.541 2.80144 139.07C3.33236 140.655 3.95364 142.217 4.64271 143.757C4.66528 143.802 4.68786 143.849 4.71044 143.897C4.73304 143.945 4.75565 143.993 4.77826 144.038C8.49468 144.431 12.1772 144.993 15.8033 145.746C30.6488 148.831 44.7407 154.78 58.3708 160.535L58.4574 160.571V160.56ZM86.5508 177.128C101.213 181.669 116.824 183.928 132.662 183.928V183.917C133.712 183.917 134.751 183.905 135.802 183.883L118.53 193.74C111.346 197.831 103.179 200.001 94.8874 200.001C86.596 200.001 78.4289 197.843 71.2446 193.74L36.8931 174.138L27.2575 168.642C19.9941 164.483 13.9055 158.863 9.31928 152.119C8.81095 151.377 8.32522 150.602 7.85078 149.826C10.1439 150.152 12.4257 150.535 14.6849 151.007C29.0003 153.979 42.8433 159.827 56.2252 165.481L56.3111 165.517C66.0936 169.653 76.2036 173.924 86.5508 177.128ZM414.744 34.6742V149.162H434.331V34.6742H414.744ZM293.672 123.355L293.674 123.357C289.857 128.799 284.325 131.111 277.857 131.111C265.545 131.111 257.231 122.602 257.231 110.137C257.231 97.6726 265.545 89.0068 277.857 89.0068C284.601 89.0068 290.317 91.6144 293.785 97.6726L310.21 88.1301C303.195 77.6209 291.198 71.2705 277.857 71.2705C256.192 71.2705 238.242 87.1185 238.242 110.149C238.242 133.179 256.192 148.87 277.857 148.87C290.882 148.87 302.607 143.047 309.521 133.28L293.674 123.357L293.683 123.344L293.672 123.355ZM396.365 147.184H376.778V141.463C370.542 146.453 362.386 149.387 352.299 149.387C333.457 149.387 315.948 133.696 315.948 110.666C315.948 87.6354 333.457 71.7986 352.299 71.7986C362.386 71.7986 370.553 74.7322 376.778 79.8688V74.0016H396.365V147.184ZM376.778 110.666C376.778 97.1667 366.25 88.6695 355.71 88.6695C343.838 88.6695 334.937 97.178 334.937 110.666C334.937 124.153 343.838 132.516 355.71 132.516C366.25 132.516 376.778 124.153 376.778 110.666ZM474.76 54.1192C474.76 60.5708 469.711 65.4152 462.888 65.4152C456.065 65.4152 451.016 60.5708 451.016 54.1192C451.016 47.6676 455.907 42.5311 462.888 42.5311C469.869 42.5311 474.76 47.9599 474.76 54.1192ZM453.094 149.162V75.9693H472.682V149.162H453.094ZM490.417 149.162H556.149V133.325H514.602L554.364 88.8834V75.9802H491.456V91.817H530.179L490.417 136.551V149.162ZM646.043 149.162H626.456V143.441C620.22 148.431 612.064 151.365 601.977 151.365C583.135 151.365 565.626 135.674 565.626 112.644C565.626 89.6139 583.135 73.7771 601.977 73.7771C612.064 73.7771 620.232 76.7107 626.456 81.8472V75.9801H646.043V149.162ZM626.456 112.644C626.456 99.1452 615.928 90.648 605.388 90.648C593.516 90.648 584.615 99.1564 584.615 112.644C584.615 126.132 593.516 134.494 605.388 134.494C615.928 134.494 626.456 126.132 626.456 112.644Z" fill="white"/>
</svg>
